# xmcd
#
# Track frame offsets:
#	182
#	23130
#	44665
#	68127
#	90000
#	107130
#	129047
#	153482
#	174880
#	195125
#
# Disc length: 2926 seconds
#
# Revision: 5
# Processed by: cddbd v1.5.2PL0 Copyright (c) Steve Scherf et al.
# Submitted via: EasyCDDAExtractor 15.3.0.1
#
DISCID=6b0b6c0a
DTITLE=Yolandita Monge - Fiebre De Luna
DYEAR=1994
DGENRE=Latin
TTITLE0=A Pesar Del Tiempo
TTITLE1=Dime Cuando
TTITLE2=El
TTITLE3=Como Puedes
TTITLE4=Te Extraño
TTITLE5=Todo Por Dolor
TTITLE6=Me Sorprendio La Luna
TTITLE7=Prohibido
TTITLE8=Tu
TTITLE9=Fiebre
EXTD=
EXTT0=
EXTT1=
EXTT2=
EXTT3=
EXTT4=
EXTT5=
EXTT6=
EXTT7=
EXTT8=
EXTT9=
PLAYORDER=
